<mxfile host="app.diagrams.net" modified="2023-10-06T17:49:49.685Z" agent="Mozilla/5.0 (Windows NT 10.0; Win64; x64) AppleWebKit/537.36 (KHTML, like Gecko) Chrome/117.0.0.0 Safari/537.36 Edg/117.0.2045.47" etag="n4reJwJExAzcpBR3zcif" version="22.0.3" type="device">
  <diagram name="PÃ¡gina-1" id="EEPCAmMW9igjxWcW5WQs">
    <mxGraphModel dx="1320" dy="750" grid="1" gridSize="10" guides="1" tooltips="1" connect="1" arrows="1" fold="1" page="1" pageScale="1" pageWidth="827" pageHeight="1169" math="0" shadow="0">
      <root>
        <mxCell id="0" />
        <mxCell id="1" parent="0" />
        <mxCell id="PgLXaMmoWq8JoKH9Fzph-1" value="PELICULA" style="swimlane;fontStyle=0;childLayout=stackLayout;horizontal=1;startSize=30;horizontalStack=0;resizeParent=1;resizeParentMax=0;resizeLast=0;collapsible=1;marginBottom=0;whiteSpace=wrap;html=1;" vertex="1" parent="1">
          <mxGeometry x="110" y="80" width="140" height="120" as="geometry" />
        </mxCell>
        <mxCell id="PgLXaMmoWq8JoKH9Fzph-2" value="- nombre: string&lt;br&gt;- fecha_estreno: fecha&lt;br&gt;- precio_base: float" style="text;strokeColor=default;fillColor=none;align=left;verticalAlign=middle;spacingLeft=4;spacingRight=4;overflow=hidden;points=[[0,0.5],[1,0.5]];portConstraint=eastwest;rotatable=0;whiteSpace=wrap;html=1;" vertex="1" parent="PgLXaMmoWq8JoKH9Fzph-1">
          <mxGeometry y="30" width="140" height="60" as="geometry" />
        </mxCell>
        <mxCell id="PgLXaMmoWq8JoKH9Fzph-4" value="+ montoPelicula()" style="text;strokeColor=none;fillColor=none;align=left;verticalAlign=middle;spacingLeft=4;spacingRight=4;overflow=hidden;points=[[0,0.5],[1,0.5]];portConstraint=eastwest;rotatable=0;whiteSpace=wrap;html=1;" vertex="1" parent="PgLXaMmoWq8JoKH9Fzph-1">
          <mxGeometry y="90" width="140" height="30" as="geometry" />
        </mxCell>
        <mxCell id="PgLXaMmoWq8JoKH9Fzph-5" value="ALQUILER" style="swimlane;fontStyle=0;childLayout=stackLayout;horizontal=1;startSize=30;horizontalStack=0;resizeParent=1;resizeParentMax=0;resizeLast=0;collapsible=1;marginBottom=0;whiteSpace=wrap;html=1;" vertex="1" parent="1">
          <mxGeometry x="370" y="80" width="140" height="100" as="geometry" />
        </mxCell>
        <mxCell id="PgLXaMmoWq8JoKH9Fzph-6" value="- fecha: fecha" style="text;strokeColor=default;fillColor=none;align=left;verticalAlign=middle;spacingLeft=4;spacingRight=4;overflow=hidden;points=[[0,0.5],[1,0.5]];portConstraint=eastwest;rotatable=0;whiteSpace=wrap;html=1;" vertex="1" parent="PgLXaMmoWq8JoKH9Fzph-5">
          <mxGeometry y="30" width="140" height="40" as="geometry" />
        </mxCell>
        <mxCell id="PgLXaMmoWq8JoKH9Fzph-7" value="Item 3" style="text;strokeColor=none;fillColor=none;align=left;verticalAlign=middle;spacingLeft=4;spacingRight=4;overflow=hidden;points=[[0,0.5],[1,0.5]];portConstraint=eastwest;rotatable=0;whiteSpace=wrap;html=1;" vertex="1" parent="PgLXaMmoWq8JoKH9Fzph-5">
          <mxGeometry y="70" width="140" height="30" as="geometry" />
        </mxCell>
        <mxCell id="PgLXaMmoWq8JoKH9Fzph-11" value="USUARIO" style="swimlane;fontStyle=0;childLayout=stackLayout;horizontal=1;startSize=30;horizontalStack=0;resizeParent=1;resizeParentMax=0;resizeLast=0;collapsible=1;marginBottom=0;whiteSpace=wrap;html=1;" vertex="1" parent="1">
          <mxGeometry x="630" y="80" width="140" height="110" as="geometry" />
        </mxCell>
        <mxCell id="PgLXaMmoWq8JoKH9Fzph-12" value="- correo: string&lt;br&gt;- tarjeta: tarjeta" style="text;strokeColor=default;fillColor=none;align=left;verticalAlign=middle;spacingLeft=4;spacingRight=4;overflow=hidden;points=[[0,0.5],[1,0.5]];portConstraint=eastwest;rotatable=0;whiteSpace=wrap;html=1;" vertex="1" parent="PgLXaMmoWq8JoKH9Fzph-11">
          <mxGeometry y="30" width="140" height="50" as="geometry" />
        </mxCell>
        <mxCell id="PgLXaMmoWq8JoKH9Fzph-13" value="+ calcularMonto(fecha)" style="text;strokeColor=none;fillColor=none;align=left;verticalAlign=middle;spacingLeft=4;spacingRight=4;overflow=hidden;points=[[0,0.5],[1,0.5]];portConstraint=eastwest;rotatable=0;whiteSpace=wrap;html=1;" vertex="1" parent="PgLXaMmoWq8JoKH9Fzph-11">
          <mxGeometry y="80" width="140" height="30" as="geometry" />
        </mxCell>
        <mxCell id="PgLXaMmoWq8JoKH9Fzph-14" value="NACIONAL" style="swimlane;fontStyle=0;childLayout=stackLayout;horizontal=1;startSize=30;horizontalStack=0;resizeParent=1;resizeParentMax=0;resizeLast=0;collapsible=1;marginBottom=0;whiteSpace=wrap;html=1;" vertex="1" parent="1">
          <mxGeometry x="20" y="280" width="140" height="100" as="geometry" />
        </mxCell>
        <mxCell id="PgLXaMmoWq8JoKH9Fzph-15" value="" style="text;strokeColor=default;fillColor=none;align=left;verticalAlign=middle;spacingLeft=4;spacingRight=4;overflow=hidden;points=[[0,0.5],[1,0.5]];portConstraint=eastwest;rotatable=0;whiteSpace=wrap;html=1;" vertex="1" parent="PgLXaMmoWq8JoKH9Fzph-14">
          <mxGeometry y="30" width="140" height="40" as="geometry" />
        </mxCell>
        <mxCell id="PgLXaMmoWq8JoKH9Fzph-16" value="+ montoPelicula()" style="text;strokeColor=none;fillColor=none;align=left;verticalAlign=middle;spacingLeft=4;spacingRight=4;overflow=hidden;points=[[0,0.5],[1,0.5]];portConstraint=eastwest;rotatable=0;whiteSpace=wrap;html=1;" vertex="1" parent="PgLXaMmoWq8JoKH9Fzph-14">
          <mxGeometry y="70" width="140" height="30" as="geometry" />
        </mxCell>
        <mxCell id="PgLXaMmoWq8JoKH9Fzph-17" value="INTERNACIONAL" style="swimlane;fontStyle=0;childLayout=stackLayout;horizontal=1;startSize=30;horizontalStack=0;resizeParent=1;resizeParentMax=0;resizeLast=0;collapsible=1;marginBottom=0;whiteSpace=wrap;html=1;" vertex="1" parent="1">
          <mxGeometry x="204" y="280" width="140" height="100" as="geometry" />
        </mxCell>
        <mxCell id="PgLXaMmoWq8JoKH9Fzph-18" value="- origen: string" style="text;strokeColor=default;fillColor=none;align=left;verticalAlign=middle;spacingLeft=4;spacingRight=4;overflow=hidden;points=[[0,0.5],[1,0.5]];portConstraint=eastwest;rotatable=0;whiteSpace=wrap;html=1;" vertex="1" parent="PgLXaMmoWq8JoKH9Fzph-17">
          <mxGeometry y="30" width="140" height="40" as="geometry" />
        </mxCell>
        <mxCell id="PgLXaMmoWq8JoKH9Fzph-19" value="+ montoPelicula()" style="text;strokeColor=none;fillColor=none;align=left;verticalAlign=middle;spacingLeft=4;spacingRight=4;overflow=hidden;points=[[0,0.5],[1,0.5]];portConstraint=eastwest;rotatable=0;whiteSpace=wrap;html=1;" vertex="1" parent="PgLXaMmoWq8JoKH9Fzph-17">
          <mxGeometry y="70" width="140" height="30" as="geometry" />
        </mxCell>
        <mxCell id="PgLXaMmoWq8JoKH9Fzph-20" value="" style="triangle;whiteSpace=wrap;html=1;rotation=-90;" vertex="1" parent="1">
          <mxGeometry x="167.5" y="197" width="25" height="33.33" as="geometry" />
        </mxCell>
        <mxCell id="PgLXaMmoWq8JoKH9Fzph-21" value="" style="endArrow=none;html=1;rounded=0;entryX=0;entryY=0.5;entryDx=0;entryDy=0;exitX=0.5;exitY=0;exitDx=0;exitDy=0;" edge="1" parent="1" source="PgLXaMmoWq8JoKH9Fzph-14" target="PgLXaMmoWq8JoKH9Fzph-20">
          <mxGeometry width="50" height="50" relative="1" as="geometry">
            <mxPoint x="370" y="300" as="sourcePoint" />
            <mxPoint x="420" y="250" as="targetPoint" />
            <Array as="points">
              <mxPoint x="90" y="240" />
              <mxPoint x="180" y="240" />
            </Array>
          </mxGeometry>
        </mxCell>
        <mxCell id="PgLXaMmoWq8JoKH9Fzph-22" value="" style="endArrow=none;html=1;rounded=0;entryX=0.5;entryY=0;entryDx=0;entryDy=0;exitX=0;exitY=0.5;exitDx=0;exitDy=0;" edge="1" parent="1" source="PgLXaMmoWq8JoKH9Fzph-20" target="PgLXaMmoWq8JoKH9Fzph-17">
          <mxGeometry width="50" height="50" relative="1" as="geometry">
            <mxPoint x="190" y="290" as="sourcePoint" />
            <mxPoint x="240" y="240" as="targetPoint" />
            <Array as="points">
              <mxPoint x="180" y="240" />
              <mxPoint x="274" y="240" />
            </Array>
          </mxGeometry>
        </mxCell>
        <mxCell id="PgLXaMmoWq8JoKH9Fzph-23" value="" style="rhombus;whiteSpace=wrap;html=1;" vertex="1" parent="1">
          <mxGeometry x="340" y="80" width="30" height="30" as="geometry" />
        </mxCell>
        <mxCell id="PgLXaMmoWq8JoKH9Fzph-24" value="" style="endArrow=none;html=1;rounded=0;entryX=0;entryY=0.5;entryDx=0;entryDy=0;exitX=0.998;exitY=0.119;exitDx=0;exitDy=0;exitPerimeter=0;" edge="1" parent="1" source="PgLXaMmoWq8JoKH9Fzph-1" target="PgLXaMmoWq8JoKH9Fzph-23">
          <mxGeometry width="50" height="50" relative="1" as="geometry">
            <mxPoint x="290" y="140" as="sourcePoint" />
            <mxPoint x="340" y="90" as="targetPoint" />
          </mxGeometry>
        </mxCell>
        <mxCell id="PgLXaMmoWq8JoKH9Fzph-25" value="5&amp;nbsp; peliculas&amp;nbsp; 1" style="text;html=1;strokeColor=none;fillColor=none;align=center;verticalAlign=middle;whiteSpace=wrap;rounded=0;" vertex="1" parent="1">
          <mxGeometry x="260" y="70" width="80" height="20" as="geometry" />
        </mxCell>
        <mxCell id="PgLXaMmoWq8JoKH9Fzph-26" value="" style="rhombus;whiteSpace=wrap;html=1;fillColor=#000000;" vertex="1" parent="1">
          <mxGeometry x="600" y="80" width="30" height="30" as="geometry" />
        </mxCell>
        <mxCell id="PgLXaMmoWq8JoKH9Fzph-27" value="" style="endArrow=none;html=1;rounded=0;entryX=0;entryY=0.5;entryDx=0;entryDy=0;exitX=0.998;exitY=0.119;exitDx=0;exitDy=0;exitPerimeter=0;" edge="1" parent="1" target="PgLXaMmoWq8JoKH9Fzph-26">
          <mxGeometry width="50" height="50" relative="1" as="geometry">
            <mxPoint x="510" y="94" as="sourcePoint" />
            <mxPoint x="600" y="90" as="targetPoint" />
          </mxGeometry>
        </mxCell>
        <mxCell id="PgLXaMmoWq8JoKH9Fzph-28" value="*&amp;nbsp; alquileres&amp;nbsp; 1" style="text;html=1;strokeColor=none;fillColor=none;align=center;verticalAlign=middle;whiteSpace=wrap;rounded=0;" vertex="1" parent="1">
          <mxGeometry x="510" y="70" width="100" height="20" as="geometry" />
        </mxCell>
        <mxCell id="PgLXaMmoWq8JoKH9Fzph-30" value="RETORNA&amp;nbsp; precio_base * 1.3" style="shape=note;whiteSpace=wrap;html=1;backgroundOutline=1;darkOpacity=0.05;size=13;align=center;verticalAlign=middle;perimeterSpacing=0;fontSize=10;spacing=6;" vertex="1" parent="1">
          <mxGeometry x="280" y="430" width="220" height="100" as="geometry" />
        </mxCell>
        <mxCell id="PgLXaMmoWq8JoKH9Fzph-31" value="SI(fecha.getAnioActual() - &lt;span style=&quot;white-space: pre; font-size: 10px;&quot;&gt;&#x9;&lt;/span&gt;fecha_estreno.fecha.getAnio() &amp;gt; 10) ENT&lt;br style=&quot;font-size: 10px;&quot;&gt;&lt;span style=&quot;white-space: pre; font-size: 10px;&quot;&gt;&#x9;&lt;/span&gt;RETORNA precio_base * 0.8&lt;br&gt;SINO&lt;br&gt;&lt;span style=&quot;white-space: pre;&quot;&gt;&#x9;&lt;/span&gt;RETORNA precio_base" style="shape=note;whiteSpace=wrap;html=1;backgroundOutline=1;darkOpacity=0.05;size=13;align=left;verticalAlign=top;perimeterSpacing=0;fontSize=10;spacing=6;" vertex="1" parent="1">
          <mxGeometry x="20" y="430" width="220" height="100" as="geometry" />
        </mxCell>
        <mxCell id="PgLXaMmoWq8JoKH9Fzph-32" value="" style="endArrow=none;html=1;rounded=0;entryX=0;entryY=0.5;entryDx=0;entryDy=0;exitX=0;exitY=0.5;exitDx=0;exitDy=0;exitPerimeter=0;" edge="1" parent="1" source="PgLXaMmoWq8JoKH9Fzph-31" target="PgLXaMmoWq8JoKH9Fzph-16">
          <mxGeometry width="50" height="50" relative="1" as="geometry">
            <mxPoint x="400" y="400" as="sourcePoint" />
            <mxPoint x="450" y="350" as="targetPoint" />
            <Array as="points">
              <mxPoint x="10" y="480" />
              <mxPoint x="10" y="370" />
            </Array>
          </mxGeometry>
        </mxCell>
        <mxCell id="PgLXaMmoWq8JoKH9Fzph-34" value="monto = 100&lt;br&gt;PARA CADA a en alquileres HACER&lt;br&gt;&lt;span style=&quot;&quot;&gt;&lt;span style=&quot;white-space: pre;&quot;&gt;&amp;nbsp;&amp;nbsp;&amp;nbsp;&amp;nbsp;&lt;/span&gt;&lt;/span&gt;SI(a.fecha.getAnio() = fecha.getAnio() AND&lt;br&gt;&lt;span style=&quot;&quot;&gt;&lt;span style=&quot;white-space: pre;&quot;&gt;&amp;nbsp;&amp;nbsp;&amp;nbsp;&amp;nbsp;&lt;/span&gt;&lt;/span&gt;&lt;span style=&quot;&quot;&gt;&lt;span style=&quot;white-space: pre;&quot;&gt;&amp;nbsp;&amp;nbsp;&amp;nbsp;&amp;nbsp;&lt;/span&gt;&lt;/span&gt;a.fecha.getMes() = fecha.getMes()&amp;nbsp;) ENT&lt;br&gt;&lt;span style=&quot;white-space: pre;&quot;&gt;&#x9;&lt;/span&gt;&lt;span style=&quot;white-space: pre;&quot;&gt;&#x9;&lt;/span&gt;PARA CADA p en a.peliculas HACER&lt;br&gt;&lt;span style=&quot;white-space: pre;&quot;&gt;&#x9;&lt;/span&gt;&lt;span style=&quot;white-space: pre;&quot;&gt;&#x9;&lt;/span&gt;&lt;span style=&quot;white-space: pre;&quot;&gt;&#x9;&lt;/span&gt;monto = monto + p.montoPelicula()&lt;br&gt;&lt;br&gt;RETORNA monto" style="shape=note;whiteSpace=wrap;html=1;backgroundOutline=1;darkOpacity=0.05;size=13;align=left;verticalAlign=top;perimeterSpacing=0;fontSize=10;spacing=6;" vertex="1" parent="1">
          <mxGeometry x="520" y="240" width="280" height="120" as="geometry" />
        </mxCell>
        <mxCell id="PgLXaMmoWq8JoKH9Fzph-36" value="" style="endArrow=none;html=1;rounded=0;entryX=0;entryY=0.5;entryDx=0;entryDy=0;exitX=0.5;exitY=0;exitDx=0;exitDy=0;exitPerimeter=0;" edge="1" parent="1" source="PgLXaMmoWq8JoKH9Fzph-34" target="PgLXaMmoWq8JoKH9Fzph-13">
          <mxGeometry width="50" height="50" relative="1" as="geometry">
            <mxPoint x="350" y="300" as="sourcePoint" />
            <mxPoint x="400" y="250" as="targetPoint" />
            <Array as="points">
              <mxPoint x="660" y="220" />
              <mxPoint x="600" y="220" />
              <mxPoint x="600" y="175" />
            </Array>
          </mxGeometry>
        </mxCell>
        <mxCell id="PgLXaMmoWq8JoKH9Fzph-37" value="" style="endArrow=none;html=1;rounded=0;entryX=1;entryY=0.5;entryDx=0;entryDy=0;exitX=0.507;exitY=-0.001;exitDx=0;exitDy=0;exitPerimeter=0;" edge="1" parent="1" source="PgLXaMmoWq8JoKH9Fzph-30" target="PgLXaMmoWq8JoKH9Fzph-19">
          <mxGeometry width="50" height="50" relative="1" as="geometry">
            <mxPoint x="280" y="390" as="sourcePoint" />
            <mxPoint x="330" y="340" as="targetPoint" />
            <Array as="points">
              <mxPoint x="390" y="365" />
            </Array>
          </mxGeometry>
        </mxCell>
      </root>
    </mxGraphModel>
  </diagram>
</mxfile>
